<svg width="24" height="25" viewBox="0 0 24 25" fill="none" xmlns="http://www.w3.org/2000/svg">
<path d="M15.59 14.87C15.7982 15.7511 15.8044 16.6678 15.608 17.5516C15.4116 18.4354 15.0177 19.2633 14.4559 19.9732C13.8941 20.6832 13.1789 21.2568 12.364 21.6511C11.549 22.0454 10.6553 22.2501 9.75 22.25V17.45M15.59 14.87C17.4999 13.4788 19.0536 11.6555 20.1242 9.54908C21.1947 7.44267 21.7519 5.11287 21.75 2.75C19.3873 2.7483 17.0577 3.30549 14.9515 4.37607C12.8452 5.44665 11.0221 7.00026 9.631 8.91M15.59 14.87C13.8519 16.1413 11.8603 17.0214 9.75 17.45M9.75 17.45C9.647 17.471 9.543 17.491 9.439 17.51C8.53179 16.7906 7.71038 15.9692 6.991 15.062C7.00989 14.9578 7.02889 14.8538 7.05 14.75M9.631 8.91C8.74986 8.7016 7.83298 8.69532 6.94907 8.89164C6.06516 9.08797 5.23714 9.48179 4.52707 10.0436C3.817 10.6054 3.2433 11.3207 2.84895 12.1357C2.4546 12.9508 2.24984 13.8446 2.25 14.75H7.05M9.631 8.91C8.35988 10.6478 7.47875 12.64 7.05 14.75M4.811 17.14C4.15318 17.6292 3.64173 18.289 3.33202 19.048C3.02232 19.807 2.92618 20.6363 3.054 21.446C3.86383 21.5737 4.69316 21.4774 5.45218 21.1675C6.21119 20.8577 6.87095 20.346 7.36 19.688M16.5 9.5C16.5 9.89783 16.342 10.2794 16.0607 10.5607C15.7794 10.842 15.3978 11 15 11C14.6022 11 14.2206 10.842 13.9393 10.5607C13.658 10.2794 13.5 9.89783 13.5 9.5C13.5 9.10218 13.658 8.72065 13.9393 8.43934C14.2206 8.15804 14.6022 8 15 8C15.3978 8 15.7794 8.15804 16.0607 8.43934C16.342 8.72065 16.5 9.10218 16.5 9.5Z" stroke="black" stroke-width="1.5" stroke-linecap="round" stroke-linejoin="round"/>
</svg>
